This is one of Straub's latest movies, shot on video.  Giorgio Passerone recites the second half of Canto XXXIII from Dante's Paradiso, preceded by seven minutes of black screen and Varèse's "Déserts." 

   General
      Complete name : O somma luce.avi
      Format : AVI
      Format/Info : Audio Video Interleave
      File size : 249 MiB
      Duration : 17mn 49s
      Overall bit rate : 1 950 Kbps
      Writing application : FairUse Wizard - http://fairusewizard.com
      Writing library : The best and REALLY easy backup tool
   Video #0
      ID : 0
      Format : MPEG-4 Visual
      Format profile : AdvancedSimple@L5
      Format settings, BVOP : Yes
      Format settings, QPel : No
      Format settings, GMC : No warppoints
      Format settings, Matrix : Default (MPEG)
      Muxing mode : Packed bitstream
      Codec ID : XVID
      Codec ID/Hint : XviD
      Duration : 17mn 49s
      Bit rate : 1 748 Kbps
      Width : 688 pixels
      Height : 384 pixels
      Display aspect ratio : 16:9
      Frame rate : 25.000 fps
      Resolution : 24 bits
      Colorimetry : 4:2:0
      Scan type : Progressive
      Bits/(Pixel*Frame) : 0.265
      Stream size : 223 MiB (90%)
      Writing library : XviD 1.2.1 (UTC 2008-12-04)
   Audio #1
      ID : 1
      Format : AC-3
      Format/Info : Audio Coding 3
      Codec ID : 2000
      Duration : 17mn 49s
      Bit rate mode : Constant
      Bit rate : 192 Kbps
      Channel(s) : 2 channels
      Channel positions : L R
      Sampling rate : 48.0 KHz
      Stream size : 24.5 MiB (10%)
      Alignment : Split accross interleaves
      Interleave, duration : 40 ms (1.00 video frame)
      Interleave, preload duration : 500 ms
 
http://www.imdb.com/title/tt1720181/

Italian audio; Italian, English and Portuguese subtitles

My rip of a DVD posted at KG by tag

Jean-Marie Straub - O somma luce (2010)